<?xml version="1.0" encoding="utf-8"?>
<svg viewBox="0 0 500 500" xmlns="http://www.w3.org/2000/svg">
  <path d="M 127.50091552734375 125.37937927246094" style="stroke: rgb(0, 0, 0); fill: rgb(216, 216, 216);"/>
  <path style="fill: rgb(34, 139, 34); stroke: rgb(34, 139, 34);" d="M 401.682 192.069 C 401.183 192.818 390.575 183.563 392.171 181.17 C 390.239 180.756 389.206 170.031 389.672 170.131 C 389.672 170.877 394.393 176.742 394.393 174.505 C 393.615 178.24 401.57 188.18 401.613 187.973 C 401.132 188.003 395.486 175.478 397.725 175.338 C 393.935 173.735 398.024 168.864 398.558 169.09 C 397.606 169.865 404.362 189.889 404.876 189.084 C 405.69 190.771 404.779 174.015 403.071 170.478 C 403.276 170.045 408.952 177.802 407.653 180.545 L 406.056 189.57 C 407.106 188.742 413.722 171.296 412.374 172.492 C 412.096 172.529 410.862 183.546 413.068 183.252 C 411.194 183.252 401.816 192.937 402.978 193.261 L 401.682 192.069 Z"/>
  <path style="stroke: rgb(34, 139, 34); fill: rgb(34, 139, 34);" d="M 393.421 185.543 C 393.685 186.237 388.586 186.243 386.687 183.183 C 386.871 184.655 390.789 181.895 390.783 183.044 C 390.2 184.064 393.339 185.687 393.421 185.543 Z"/>
  <path style="stroke: rgb(34, 139, 34); fill: rgb(34, 139, 34);" d="M 395.087 177.351 C 393.052 176.28 392.028 167.348 393.49 168.118 C 393.434 168.835 397.508 178.386 397.795 176.449 C 397.528 176.129 394.46 176.599 395.087 177.351 Z"/>
  <path style="stroke: rgb(34, 139, 34); fill: rgb(34, 139, 34);" d="M 400.919 178.879 C 401.546 179.088 409.244 172.86 408.764 172.7 C 408.867 172.7 407.57 177.004 406.681 177.004 C 406.681 177.913 400.919 178.956 400.919 178.879 Z"/>
  <path style="stroke: rgb(34, 139, 34); fill: rgb(34, 139, 34);" d="M 408.555 183.669 C 407.938 185.15 402.651 181.149 402.932 180.475 C 402.932 180.926 407.93 182.12 407.93 180.337 C 407.318 180.704 408.267 183.842 408.555 183.669 Z"/>
  <path style="stroke: rgb(34, 139, 34); fill: rgb(34, 139, 34);" d="M 411.957 180.128 C 412.219 180.325 418.185 175.965 417.719 175.616 C 417.406 175.733 415.949 179.629 417.025 179.226 C 417.246 178.895 412.103 179.909 411.957 180.128 Z"/>
  <path style="stroke: rgb(34, 139, 34); fill: rgb(34, 139, 34);" d="M 409.736 186.793 C 409.736 185.975 416.261 184.286 416.261 184.502 C 416.507 185.486 406.919 191.08 406.611 189.848"/>
  <path style="fill: rgb(34, 139, 34); stroke: rgb(34, 139, 34);" d="M 404.945 175.824 L 404.945 175.824 C 404.945 175.824 404.668 175.338 404.945 175.824 Z"/>
</svg>